Coordinates
version=1
nRows=32
nColumns=33
inDegrees=yes

Units are S.I. units (second, meters, Newtons, ...)
Angles are in degrees.

endheader
time	ground_thorax_rot_x	ground_thorax_rot_y	ground_thorax_rot_z	ground_thorax_tx	ground_thorax_ty	ground_thorax_tz	clav_prot_r	clav_elev_r	scapula_abduction_r	scapula_elevation_r	scapula_upward_rot_r	scapula_winging_r	shoulder_elv_r	plane_of_elev_r	axial_rot_r	elbow_flexion_r	pro_sup_r	wrist_flex_r	wrist_dev_r	clav_prot_l	clav_elev_l	scapula_abduction_l	scapula_elevation_l	scapula_upward_rot_l	scapula_winging_l	shoulder_elv_l	plane_of_elev_l	axial_rot_l	elbow_flexion_l	pro_sup_l	wrist_flex_l	wrist_dev_l	
2.8100	-3.674163	4.221795	12.343849	-0.111743	1.024283	0.009274	13.554015	-14.838397	27.562968	-10.311487	8.127195	-5.599922	-11.943027	-63.163722	117.400773	-50.409686	-174.557356	18.038046	-3.087091	19.579256	-8.939602	-28.613205	-10.217078	-29.509798	7.322786	59.851956	-6.697055	17.782795	27.934506	2.354898	14.887569	-13.125365	
2.8200	-3.661400	4.268725	12.443570	-0.112182	1.024189	0.009397	13.310658	-14.872464	26.793179	-10.106876	7.454018	-5.275797	-12.528829	-63.575588	117.235978	-50.564379	-174.500086	18.140963	-2.945420	19.362531	-8.701943	-28.284267	-10.654874	-29.965112	7.127409	59.843387	-7.433899	17.347433	29.067667	2.225732	15.218824	-13.509197	
2.8300	-3.644460	4.320864	12.547253	-0.112603	1.024098	0.009537	13.065149	-14.891757	26.021556	-9.884625	6.775832	-4.959757	-13.109974	-63.971660	117.054061	-50.659159	-174.382106	18.203442	-2.752543	19.138800	-8.458386	-27.945109	-11.092554	-30.406763	6.926132	59.822336	-8.187219	16.875558	30.141660	2.200503	15.489684	-13.900047	
2.8400	-3.640956	4.390408	12.640609	-0.112970	1.024072	0.009700	12.789005	-14.944962	25.195677	-9.687048	6.084895	-4.601338	-13.703458	-64.364319	116.809295	-50.704300	-174.176569	18.233970	-2.494091	18.895894	-8.218021	-27.571501	-11.507963	-30.803535	6.708493	59.818719	-8.980182	16.328329	31.135649	2.293334	15.729018	-14.313194	
2.8500	-3.651399	4.480105	12.716420	-0.113289	1.024144	0.009882	12.480155	-15.052964	24.311998	-9.533709	5.383332	-4.186269	-14.305762	-64.762838	116.489485	-50.695155	-173.898282	18.250308	-2.200393	18.637251	-7.988783	-27.167994	-11.892008	-31.151233	6.475909	59.835680	-9.810562	15.699677	32.033742	2.470320	15.973938	-14.740640	
2.8600	-3.665409	4.581041	12.775338	-0.113561	1.024288	0.010075	12.147608	-15.190646	23.395800	-9.407968	4.688469	-3.739444	-14.911674	-65.163917	116.117541	-50.629043	-173.548565	18.258095	-1.893423	18.367299	-7.761845	-26.742427	-12.253718	-31.453022	6.233736	59.844377	-10.653581	15.047108	32.829666	2.725656	16.204920	-15.168506	
2.8700	-3.663540	4.677850	12.829517	-0.113824	1.024441	0.010274	11.825134	-15.306683	22.512224	-9.267805	4.015601	-3.318264	-15.505076	-65.553519	115.736295	-50.496916	-173.139273	18.269469	-1.618478	18.100845	-7.527284	-26.322082	-12.613495	-31.735028	5.995175	59.806034	-11.477025	14.427588	33.531540	3.049588	16.392524	-15.575272	
2.8800	-3.643372	4.768132	12.882132	-0.114076	1.024601	0.010480	11.517043	-15.395944	21.668604	-9.108871	3.365099	-2.928852	-16.083980	-65.926118	115.341848	-50.297134	-172.660144	18.293375	-1.386036	17.838489	-7.286821	-25.907792	-12.971706	-32.001520	5.760495	59.718668	-12.279083	13.843421	34.140865	3.450233	16.531945	-15.962385	
2.8900	-3.605307	4.850237	12.930634	-0.114318	1.024749	0.010693	11.231378	-15.452350	20.880109	-8.927404	2.741025	-2.582138	-16.657095	-66.274709	114.919421	-50.032057	-172.051169	18.359429	-1.219248	17.579787	-7.034237	-25.497332	-13.331793	-32.247796	5.530553	59.581589	-13.058399	13.292113	34.670503	3.979423	16.603819	-16.344521	
2.9000	-3.551656	4.921881	12.976176	-0.114548	1.024891	0.010914	10.966163	-15.482084	20.142629	-8.729290	2.143151	-2.272314	-17.226359	-66.604351	114.471421	-49.710964	-171.327568	18.467272	-1.111525	17.324160	-6.777255	-25.090005	-13.689942	-32.480456	5.303264	59.403750	-13.821184	12.776069	35.123187	4.616357	16.623448	-16.727952	
2.9100	-3.493522	4.987104	13.015525	-0.114754	1.025019	0.011144	10.715808	-15.498726	19.443251	-8.524970	1.565605	-1.986114	-17.808813	-66.919046	113.981881	-49.355678	-170.458795	18.635612	-1.059541	17.068235	-6.513232	-24.679115	-14.045629	-32.692662	5.076006	59.203665	-14.581707	12.268904	35.516526	5.379395	16.605071	-17.141835	
2.9200	-3.424791	5.044614	13.043050	-0.114942	1.025165	0.011377	10.475521	-15.511379	18.776577	-8.325343	1.014776	-1.714377	-18.385060	-67.229064	113.468081	-48.968513	-169.520754	18.838130	-1.043753	16.814161	-6.259006	-24.269689	-14.388771	-32.895724	4.848060	58.984164	-15.330651	11.794828	35.835495	6.192352	16.578740	-17.576695	
2.9300	-3.360403	5.098531	13.059030	-0.115085	1.025333	0.011615	10.237148	-15.534195	18.127105	-8.142876	0.487762	-1.443449	-18.987114	-67.531938	112.887671	-48.555794	-168.401282	19.124127	-1.084015	16.551447	-6.002518	-23.840492	-14.719634	-33.065468	4.613083	58.757595	-16.084465	11.334053	36.088981	7.142329	16.534935	-18.086847	
2.9400	-3.283412	5.129743	13.079901	-0.115227	1.025493	0.011853	10.022299	-15.528693	17.538002	-7.947255	-0.001131	-1.212292	-19.589277	-67.829446	112.320080	-48.123241	-167.236976	19.446286	-1.174502	16.296427	-5.753835	-23.424265	-15.048758	-33.245758	4.381656	58.498400	-16.822605	10.959967	36.275562	8.105523	16.483136	-18.625209	
2.9500	-3.204717	5.143332	13.110461	-0.115354	1.025634	0.012098	9.825054	-15.502585	16.993889	-7.741918	-0.462235	-1.010302	-20.213853	-68.120253	111.739797	-47.691965	-165.985885	19.813720	-1.308491	16.044317	-5.505665	-23.011509	-15.377599	-33.424922	4.151070	58.220377	-17.565721	10.631929	36.416707	9.117228	16.419035	-19.218469	
2.9600	-3.106149	5.134175	13.140192	-0.115496	1.025765	0.012339	9.654782	-15.441564	16.516472	-7.518756	-0.882486	-0.853655	-20.819782	-68.407347	111.197868	-47.270375	-164.794504	20.159822	-1.455850	15.807940	-5.274167	-22.627570	-15.702175	-33.627912	3.930119	57.911891	-18.287526	10.385909	36.513106	10.055813	16.347822	-19.804436	
2.9700	-3.019416	5.118175	13.158374	-0.115589	1.025921	0.012584	9.483354	-15.399882	16.053463	-7.326216	-1.269857	-0.691658	-21.493711	-68.698683	110.556262	-46.872617	-163.393826	20.563859	-1.627355	15.559069	-5.038355	-22.214276	-16.008396	-33.780498	3.700827	57.605735	-19.042303	10.130950	36.583982	11.133541	16.235838	-20.513575	
2.9800	-2.924919	5.088458	13.164271	-0.115664	1.026078	0.012821	9.324373	-15.347124	15.632442	-7.139523	-1.614742	-0.551809	-22.194539	-68.997674	109.891317	-46.514376	-161.962616	20.960145	-1.796392	15.314944	-4.809110	-21.806272	-16.303548	-33.921642	3.474940	57.282242	-19.800423	9.914977	36.645982	12.201665	16.093960	-21.262143	
2.9900	-2.832445	5.049757	13.169216	-0.115712	1.026213	0.013067	9.179780	-15.284241	15.250574	-6.954693	-1.929348	-0.432307	-22.975809	-69.297067	109.140792	-46.219549	-160.396475	21.392252	-1.978495	15.071035	-4.574446	-21.393141	-16.589700	-34.031861	3.250722	56.947916	-20.592576	9.688835	36.725522	13.333565	15.900887	-22.101861	
3.0000	-2.725838	5.000191	13.169320	-0.115770	1.026326	0.013307	9.056538	-15.188902	14.918922	-6.750043	-2.215221	-0.349044	-23.758446	-69.593052	108.409707	-45.984553	-158.928697	21.802108	-2.150883	14.845413	-4.348713	-21.013781	-16.876899	-34.162815	3.039215	56.596783	-21.376571	9.488327	36.834761	14.349916	15.675520	-22.890368	
3.0100	-2.627240	4.940578	13.175092	-0.115810	1.026427	0.013550	8.939256	-15.084088	14.605609	-6.542854	-2.484072	-0.276805	-24.585366	-69.890810	107.653177	-45.812229	-157.427857	22.265461	-2.340933	14.623809	-4.116533	-20.640669	-17.169675	-34.292039	2.829657	56.248278	-22.186709	9.272281	36.991313	15.343548	15.389253	-23.662102	
3.0200	-2.524655	4.864930	13.188938	-0.115865	1.026496	0.013784	8.829463	-14.947514	14.310402	-6.309301	-2.742922	-0.227197	-25.371501	-70.200665	107.008701	-45.711918	-156.143520	22.732708	-2.526471	14.423913	-3.885572	-20.313127	-17.488487	-34.479911	2.631752	55.898942	-22.985091	9.074672	37.222364	16.118222	15.060249	-24.244965	
3.0300	-2.425642	4.779158	13.204062	-0.115916	1.026559	0.014016	8.720544	-14.805324	14.021472	-6.074168	-2.991961	-0.182489	-26.168969	-70.522781	106.378433	-45.675683	-154.905735	23.292712	-2.754646	14.233500	-3.653640	-20.004086	-17.818385	-34.689025	2.438267	55.559740	-23.801908	8.845115	37.540159	16.756103	14.606179	-24.657843	
3.0400	-2.324006	4.686558	13.209132	-0.115966	1.026637	0.014226	8.607711	-14.656982	13.732539	-5.839077	-3.226627	-0.140376	-26.923880	-70.859481	105.816868	-45.684995	-153.808451	23.904888	-3.012918	14.055630	-3.421523	-19.721306	-18.165430	-34.934009	2.250323	55.229745	-24.604269	8.603540	37.947645	17.206653	14.061416	-24.857902	
3.0500	-2.231502	4.591969	13.202284	-0.115986	1.026740	0.014422	8.483326	-14.518711	13.432591	-5.621792	-3.441557	-0.087719	-27.693863	-71.208109	105.239367	-45.739409	-152.677492	24.605779	-3.322276	13.875505	-3.178362	-19.432527	-18.519308	-35.169698	2.058462	54.914882	-25.418114	8.327642	38.438494	17.613754	13.417408	-24.965866	
3.0600	-2.138183	4.495673	13.192423	-0.115994	1.026844	0.014600	8.354450	-14.365003	13.131442	-5.395984	-3.641927	-0.041031	-28.441275	-71.565880	104.712342	-45.850877	-151.642752	25.316124	-3.650373	13.703003	-2.924466	-19.158831	-18.890277	-35.419505	1.868831	54.604851	-26.218071	8.045459	39.007782	17.935571	12.751944	-24.990787	
3.0700	-2.046347	4.402259	13.179435	-0.115987	1.026955	0.014777	8.227415	-14.200607	12.840518	-5.166892	-3.825578	-0.002576	-29.226042	-71.918364	104.147164	-46.022007	-150.595182	26.074625	-4.029463	13.534064	-2.664881	-18.888261	-19.259229	-35.652600	1.681019	54.302554	-27.028846	7.730385	39.642833	18.245256	12.018402	-25.000000	
3.0800	-1.953487	4.307835	13.172132	-0.115983	1.027067	0.014949	8.107739	-14.017811	12.569188	-4.927076	-3.992690	0.019996	-30.039063	-72.270052	103.583332	-46.248310	-149.612029	26.845378	-4.450310	13.374446	-2.401156	-18.632839	-19.631160	-35.883336	1.498758	54.004543	-27.839024	7.399534	40.331744	18.516013	11.247238	-25.000000	
3.0900	-1.865781	4.219351	13.155271	-0.115966	1.027235	0.015130	7.993210	-13.847764	12.321913	-4.714928	-4.122583	0.038751	-30.986625	-72.606993	102.866515	-46.494403	-148.514331	27.746598	-5.008723	13.210283	-2.145722	-18.358930	-19.971211	-36.061164	1.316543	53.724708	-28.680653	7.002907	41.051180	18.815286	10.273928	-25.000000	
3.1000	-1.780683	4.135097	13.125875	-0.115941	1.027450	0.015315	7.888825	-13.687570	12.111381	-4.532306	-4.204510	0.047100	-32.079090	-72.930310	101.997965	-46.757290	-147.306935	28.753101	-5.684812	13.041994	-1.895760	-18.067233	-20.283048	-36.188153	1.134133	53.460909	-29.538709	6.551735	41.797953	19.152046	9.130279	-25.000000	
3.1100	-1.696212	4.058308	13.068186	-0.115894	1.027748	0.015509	7.805328	-13.551544	11.971417	-4.408944	-4.200264	0.038313	-33.446756	-73.217213	100.804995	-47.004511	-145.827101	29.917945	-6.535947	12.856014	-1.661297	-17.727754	-20.540965	-36.228338	0.944835	53.219225	-30.425608	6.019835	42.558943	19.600592	7.721545	-25.000000	
3.1200	-1.602700	3.981484	13.002188	-0.115848	1.028064	0.015697	7.747658	-13.400329	11.901910	-4.298977	-4.130351	-0.005101	-34.968952	-73.475963	99.465166	-47.262200	-144.293488	31.092966	-7.437277	12.666302	-1.432207	-17.375580	-20.782059	-36.241661	0.753571	52.987346	-31.287613	5.484381	43.336073	20.097990	6.273763	-25.000000	
